<svg version="1.0" xmlns="http://www.w3.org/2000/svg" width="1025.000000pt" height="1024.000000pt" viewBox="0 0 1025.000000 1024.000000" preserveAspectRatio="xMidYMid meet">

<g transform="translate(0.000000,1024.000000) scale(0.100000,-0.100000)" fill="#f05623" stroke="none">
<path d="M1270 10230 c-513 -48 -961 -381 -1161 -862 -17 -40 -45 -125 -62 -188 l-32 -115 -3 -3895 c-3 -4252 -6 -3969 53 -4175 107 -368 389 -692 749 -860 104 -49 191 -77 326 -108 l95 -21 3790 -4 c2647 -2 3830 0 3923 8 350 28 655 170 893 417 226 233 357 516 389 838 8 78 10 1212 8 3930 -4 3541 -5 3826 -21 3902 -60 291 -185 523 -391 728 -203 202 -447 332 -736 392 -80 16 -313 17 -3910 19 -2104 1 -3863 -2 -3910 -6z m6000 -3792 c0 -2247 1 -2207 -48 -2348 -61 -176 -194 -347 -342 -443 -49 -30 -1312 -667 -1325 -667 -3 0 -5 963 -5 2140 0 2361 -4 2209 62 2368 58 139 171 281 297 374 45 32 1325 676 1349 677 9 1 12 -426 12 -2101z m-2572 -2510 l-3 -983 -23 -80 c-51 -181 -165 -353 -307 -462 -51 -40 -245 -142 -727 -384 l-658 -329 0 958 c0 626 4 979 11 1018 39 222 161 417 348 556 39 29 1334 686 1354 688 4 0 6 -442 5 -982z" fill="#f05623"/>
</g>
</svg>